<?xml version="1.0" encoding="UTF-8"?>
<svg id="_レイヤー_2" data-name="レイヤー 2" xmlns="http://www.w3.org/2000/svg" width="269.9" height="189.93" viewBox="0 0 269.9 189.93">
  <defs>
    <style>
      .cls-1 {
        fill: #5f504d;
      }

      .cls-2 {
        fill: #867874;
      }

      .cls-3 {
        fill: #b1a7a2;
      }
    </style>
  </defs>
  <g id="_レイヤー_1-2" data-name="レイヤー 1">
    <g>
      <path class="cls-3" d="m174.7,14.33c-1.9,1.3-2.9,2.8-2.9,5.6v53.7c0,2.7,1.1,4,3.3,4.9l17.9,7.5c1.8.8,3.3-.2,3.3-2.2V1.83c0-2-1.3-2.3-2.9-1.2l-18.7,13.7Z"/>
      <path class="cls-2" d="m141.2,13.53c1.7,1.8,1.7,3.2,1.7,5.8v54.6c0,2.5-.6,3.9-2.6,5.2l-10.3,6.8c-1.6,1.1-3,.3-3-1.6V1.53c0-1.6,1.5-1.9,2.4-.9l11.8,12.9Z"/>
      <path class="cls-1" d="m71.9,86.33c-1.4,0-2.4-1-2.4-2.6V2.23c0-1.4.7-2.2,1.8-2.2.4,0,.9.1,1.3.4l26.7,14.5c2,1.1,3.1,2.7,3.1,5.2v53.3c0,2.4-1.3,3.9-3.4,4.6l-26.1,8.2c-.3.1-.7.1-1,.1"/>
      <path d="m21.5,110.33c5,0,8.7.8,11.2,2.5s3.8,4.2,3.8,7.4c0,1.8-.5,3.4-1.6,4.8-1,1.4-2.6,2.5-4.6,3.2,1.5.4,2.8,1.1,4.1,1.9,1.2.8,2.2,1.9,3,3.2s1.2,2.9,1.2,4.8c0,2.3-.5,4.2-1.4,5.7s-2.1,2.7-3.7,3.6c-1.5.9-3.2,1.5-5,1.8-1.8.4-3.7.5-5.5.5H0v-39.5h21.5v.1Zm.4,5.9H6v10.2h16.6c1.4,0,2.6-.3,3.8-.6,1.2-.4,2.1-1,2.8-1.8.7-.8,1-1.7,1-2.8,0-1.8-.8-3.1-2.4-3.8-1.6-.8-3.6-1.2-5.9-1.2m1,16.1H6v11.7h17.1c2.7,0,4.9-.5,6.6-1.4,1.7-1,2.6-2.4,2.6-4.4,0-1.5-.5-2.7-1.5-3.5s-2.2-1.4-3.6-1.8c-1.4-.4-2.9-.6-4.3-.6"/>
      <path d="m57.1,113.83c-1.3,0-2.3-.3-2.9-1-.6-.7-1-1.6-1-2.7,0-.9.3-1.8,1-2.5.6-.8,1.6-1.1,2.9-1.1s2.3.3,2.9,1c.6.7,1,1.6,1,2.7,0,.9-.3,1.8-1,2.5s-1.6,1.1-2.9,1.1m2.8,36h-5.8v-29.6h5.8v29.6Z"/>
      <polygon points="106.1 145.03 106.1 149.83 76.2 149.83 76.2 145.03 98.5 125.13 76.2 125.13 76.2 120.23 105.7 120.23 105.7 124.93 83.2 145.03 106.1 145.03"/>
      <path d="m145.8,126.63h-13.2v23.2h-5.3v-23.2h-7v-5.4h7v-1c0-2.4.5-4.5,1.5-6.3s2.5-3.2,4.3-4.3c1.8-1,3.9-1.6,6.3-1.6,2.1,0,3.8.3,5.2.8,1.4.6,2.4,1.1,3,1.6l-2,5c-.7-.5-1.5-1-2.5-1.4s-2-.6-3-.6c-1.9,0-3.4.3-4.5,1-1.1.6-1.9,1.5-2.4,2.5s-.7,2.1-.7,3.3v1h13.2v5.4h.1Zm15.3-18.5h5.8v41.7h-5.8v-41.7Z"/>
      <path d="m219.1,145.93h0c-1.2.8-2.6,1.5-4.3,2.2s-3.6,1.3-5.6,1.7c-2,.4-4.1.6-6.3.6-3.9,0-7.4-.6-10.5-1.9-3-1.3-5.4-3.1-7.1-5.4-1.7-2.3-2.6-4.9-2.6-7.8,0-2.5.5-4.7,1.6-6.7,1-2,2.5-3.6,4.3-5s3.9-2.4,6.3-3.1c2.4-.7,4.9-1.1,7.5-1.1,3.3,0,6.3.6,9,1.8,2.7,1.2,4.9,2.9,6.5,5,1.6,2.1,2.4,4.6,2.4,7.5l-.1,3h-31.5c.6,2.5,2.3,4.4,5,5.9,2.7,1.4,6.1,2.1,10.2,2.1,3,0,5.6-.4,7.6-1.2,2-.8,3.6-1.5,4.8-2.3l2.8,4.7Zm-16.7-21c-2.3,0-4.3.2-6.2.7s-3.5,1.3-4.8,2.4c-1.3,1.1-2.1,2.5-2.6,4.3h25.6v-1c-.2-1.3-.9-2.4-2.1-3.4-1.2-1-2.7-1.7-4.4-2.3-1.7-.4-3.5-.7-5.5-.7"/>
      <polygon points="230.9 149.83 245.8 134.23 232 120.23 240.7 120.23 250.5 131.13 261.1 120.23 269.4 120.23 254.3 134.93 269.9 149.83 261.4 149.83 249.6 138.03 239.1 149.93 230.9 149.83"/>
      <path d="m94.8,179.53c.8,0,1.5.2,2.1.5s1.2.7,1.5,1.3c.4.6.6,1.2.6,1.9s-.2,1.4-.6,1.9c-.4.6-.9,1-1.5,1.3-.7.3-1.4.5-2.2.5-.6,0-1.2-.1-1.7-.3s-.9-.5-1.3-.7v.9h-1.4v-9.9h1.4v3.9c.3-.3.7-.5,1.3-.8.6-.3,1.2-.5,1.8-.5m-.2,1.3c-.6,0-1.1.1-1.6.3s-.8.5-1.1.8c-.3.4-.4.8-.4,1.2s.1.9.4,1.2c.3.4.6.7,1.1.9s1,.3,1.6.3,1.1-.1,1.6-.3.8-.5,1.1-.9c.3-.4.4-.8.4-1.2,0-.5-.1-.9-.4-1.2-.3-.4-.6-.6-1.1-.8-.4-.2-1-.3-1.6-.3"/>
      <path d="m104.4,189.93l1.6-2.8-4.2-7.4h1.6l2.1,3.9c.3.5.5,1,.8,1.4.2.4.4.8.5,1.1.1-.3.3-.7.5-1.1.2-.4.4-.9.7-1.4l2-3.9h1.6l-3.9,7.1-1.7,3.1h-1.6Z"/>
      <polygon points="122.3 177.33 122.3 181.43 128.9 181.43 128.9 177.33 130.4 177.33 130.4 186.83 128.9 186.83 128.9 182.83 122.3 182.83 122.3 186.83 120.9 186.83 120.9 177.33 122.3 177.33"/>
      <path d="m144.1,177.33v4.9c0,.9-.2,1.7-.6,2.4-.4.7-.9,1.2-1.7,1.6-.7.4-1.5.6-2.5.6s-1.8-.2-2.5-.6c-.7-.4-1.3-.9-1.7-1.6-.4-.7-.6-1.5-.6-2.4v-4.9h1.5v4.9c0,.6.1,1.2.4,1.7.3.5.7.9,1.2,1.1.5.3,1.1.4,1.7.4s1.2-.1,1.7-.4c.5-.3.9-.7,1.2-1.1.3-.5.4-1,.4-1.7v-4.9h1.5Z"/>
      <polygon points="156 185.43 156 186.83 148.3 186.83 148.3 177.33 149.7 177.33 149.7 185.43 156 185.43"/>
      <rect x="159.2" y="176.83" width="1.4" height="10"/>
      <path d="m174.3,185.43c-.3.2-.6.4-1,.7-.4.2-.9.4-1.5.6-.6.2-1.1.2-1.8.2-.8,0-1.5-.1-2.1-.3-.7-.2-1.2-.6-1.7-1s-.9-.9-1.2-1.5-.4-1.3-.4-2,.1-1.3.4-1.9c.3-.6.7-1.1,1.2-1.5s1.1-.8,1.7-1c.7-.2,1.3-.4,2.1-.4.6,0,1.2.1,1.8.2.6.2,1.1.4,1.5.6.5.2.8.5,1.1.8l-.9,1.2c-.5-.4-1-.7-1.6-1s-1.3-.4-2-.4c-.5,0-.9.1-1.4.2-.5.2-.9.4-1.2.7-.4.3-.7.6-.9,1.1-.2.4-.3.9-.3,1.4,0,.6.1,1.1.3,1.5s.5.8.9,1.1.8.5,1.3.7c.5.1,1,.2,1.5.2s1-.1,1.4-.2c.4-.1.8-.3,1.1-.5s.6-.4.9-.6l.8,1.1Z"/>
    </g>
  </g>
</svg>