<?xml version="1.0" encoding="utf-8"?>
<!-- Generator: Adobe Illustrator 24.0.2, SVG Export Plug-In . SVG Version: 6.00 Build 0)  -->
<svg version="1.1" id="レイヤー_1" xmlns="http://www.w3.org/2000/svg" xmlns:xlink="http://www.w3.org/1999/xlink" x="0px"
	 y="0px" width="100px" height="79.3px" viewBox="0 0 100 79.3" style="enable-background:new 0 0 100 79.3;" xml:space="preserve">
<style type="text/css">
	.st0{fill:#FFFFFF;}
</style>
<g>
	<path class="st0" d="M40.2,15.5V0H25v47.6h13.3c1.7-19,10.3-32.2,20.1-35.9C53.4,9.4,45.9,10.2,40.2,15.5"/>
	<path class="st0" d="M59.8,32.1v15.5H75V0H61.7C60,19,51.3,32.2,41.6,35.9C46.6,38.2,54.1,37.4,59.8,32.1"/>
	<polygon class="st0" points="13.8,58 13.8,65.7 6.3,65.7 6.3,58 0,58 0,78.7 6.3,78.7 6.3,70.5 13.8,70.5 13.8,78.7 20.1,78.7 
		20.1,58 	"/>
	<rect x="71.6" y="58" class="st0" width="6.4" height="20.8"/>
	<polygon class="st0" points="52.2,58 52.2,78.7 67.6,78.7 67.6,73.8 58.5,73.8 58.5,58 	"/>
	<path class="st0" d="M39.8,58v13.6c0,1-0.6,2.7-3.6,2.7c-3.1,0-3.6-1.7-3.6-2.7V58h-6.3v13.5c0,2.2,0.7,4.2,2.3,5.6
		c1.7,1.4,4,2.3,6.9,2.3h1.5c2.9,0,5.2-0.9,6.9-2.3c1.6-1.3,2.3-3.4,2.3-5.6V58H39.8z"/>
	<path class="st0" d="M93.6,63h6.4v-5.1h-4.8c-2.6,0-5.6,0.1-7.9,1.4c-2.2,1.2-4,3.4-4,7.5v3.2c0,4,1.7,6.3,4,7.5
		c2.4,1.3,5.3,1.4,7.9,1.4h4.8v-5h-6.4c-2.5,0-3.8-1.6-3.8-5.5C89.8,64.6,91.2,63,93.6,63"/>
</g>
</svg>
