<?xml version="1.0" encoding="UTF-8"?>
<svg id="_レイヤー_2" data-name="レイヤー 2" xmlns="http://www.w3.org/2000/svg" width="330.000013" height="364.74917" viewBox="0 0 330.000013 364.74917">
  <g id="_レイヤー_1-2" data-name="レイヤー 1">
    <g>
      <g>
        <path d="M68.22168,334.13003v-16.099609h8.786133c1.349121,0,2.476074.157227,3.380859.470703.904297.314453,1.586914.770508,2.046875,1.369141.459961.597656.689941,1.333984.689941,2.208008,0,.842773-.283691,1.575195-.851074,2.196289s-1.39502,1.061523-2.483887,1.322266l.161133-.436523c.689941.15332,1.341309.398438,1.955078.735352.612793.337891,1.111328.793945,1.495117,1.369141.382812.575195.574707,1.28418.574707,2.126953,0,.935547-.187988,1.709961-.563477,2.323242-.375977.613281-.874023,1.09668-1.495117,1.449219-.620605.352539-1.307129.601562-2.058105.74707-.751465.146484-1.50293.21875-2.254395.21875h-9.383789ZM70.705566,324.56167h6.762207c.551758,0,1.06543-.083984,1.541016-.25293.475098-.167969.854492-.414062,1.138184-.735352.283691-.322266.425781-.698242.425781-1.126953,0-.736328-.326172-1.257812-.977539-1.564453-.651855-.306641-1.453125-.459961-2.403809-.459961h-6.48584v4.139648ZM70.705566,331.738428h6.992188c.73584,0,1.383301-.084961,1.943359-.25293.55957-.168945,1.000488-.433594,1.322754-.793945.321777-.360352.48291-.808594.48291-1.345703,0-.613281-.199707-1.087891-.598145-1.425781-.398926-.336914-.896973-.579102-1.495117-.724609-.597656-.145508-1.188477-.21875-1.770996-.21875h-6.876953v4.761719Z" style="fill: #231815;"/>
        <path d="M93.107422,319.157373c-.505859,0-.896973-.130859-1.172852-.391602-.276367-.260742-.414062-.62793-.414062-1.103516,0-.444336.141602-.805664.425293-1.081055.283691-.276367.670898-.414062,1.161621-.414062.505859,0,.896973.129883,1.172852.390625.276367.260742.414062.628906.414062,1.104492,0,.444336-.14209.804688-.425293,1.081055-.28418.275391-.670898.414062-1.161621.414062ZM91.95752,334.13003v-12.075195h2.368652v12.075195h-2.368652Z" style="fill: #231815;"/>
        <path d="M101.594238,334.13003v-1.977539l9.291992-8.326172.391113.207031h-9.683105v-1.978516h12.029297v1.932617l-9.223145,8.210938-.459961-.045898h9.820801v1.977539h-12.166992Z" style="fill: #231815;"/>
        <path d="M119.395996,324.676905v-2.18457h10.395996v2.18457h-10.395996ZM122.248047,334.13003v-12.051758c0-.96582.210449-1.821289.632324-2.564453.421875-.744141,1.008301-1.326172,1.759766-1.748047.750977-.421875,1.609863-.632812,2.575684-.632812.828125,0,1.529785.115234,2.104492.344727.575195.230469.985352.453125,1.230957.666992l-.805176,2.046875c-.275879-.198242-.621094-.390625-1.035156-.574219-.414062-.18457-.820312-.276367-1.21875-.276367-.76709,0-1.376465.130859-1.828613.390625-.452637.261719-.774414.598633-.96582,1.012695-.191895.414062-.287598.858398-.287598,1.333984v12.051758h-2.162109ZM137.681152,334.13003v-17.019531h2.368652v17.019531h-2.368652Z" style="fill: #231815;"/>
        <path d="M155.621094,334.360498c-1.595215,0-3.013184-.264648-4.255371-.793945-1.241699-.529297-2.211914-1.256836-2.90918-2.18457-.698242-.927734-1.046875-1.982422-1.046875-3.163086,0-1.011719.210938-1.912109.632812-2.702148.421387-.790039,1.003906-1.460938,1.748047-2.012695.743652-.551758,1.598145-.977539,2.564453-1.276367.96582-.298828,1.985352-.448242,3.059082-.448242,1.011719,0,1.962402.141602,2.852051.424805.888672.28418,1.670898.686523,2.345703,1.208008s1.199707,1.138672,1.575684,1.851562c.375488.712891.555664,1.505859.540527,2.379883l-.022949,1.242188h-13.087402l-.528809-1.885742h11.568848l-.344727.161133v-.552734c-.077148-.520508-.356445-.980469-.839355-1.379883-.483398-.398438-1.081055-.708984-1.794434-.930664-.712891-.222656-1.468262-.333984-2.265137-.333984-1.042969,0-1.993652.130859-2.852051.390625-.858887.261719-1.541016.69043-2.046875,1.288086-.506348.598633-.759277,1.40332-.759277,2.415039,0,.828125.268066,1.548828.805176,2.162109.536621.613281,1.279785,1.088867,2.230957,1.425781.950684.337891,2.046875.506836,3.289062.506836,1.241699,0,2.269043-.161133,3.082031-.483398.8125-.322266,1.47168-.628906,1.978027-.919922l1.034668,1.793945c-.459961.306641-1.039062.601562-1.736328.885742-.697754.283203-1.460449.509766-2.288574.677734-.828125.168945-1.671387.253906-2.529785.253906Z" style="fill: #231815;"/>
        <path d="M169.467285,334.13003l6.140625-6.44043,1.633301,1.426758-4.416016,5.013672h-3.35791ZM181.887207,334.13003l-5.358887-5.359375-.459961-.482422-6.164062-6.233398h3.564941l4.623047,5.128906.414062.414062,6.854004,6.532227h-3.473145ZM178.644043,328.425928l-1.425781-1.65625,4.57666-4.714844h3.381348l-6.532227,6.371094Z" style="fill: #231815;"/>
        <path d="M201.020508,335.143702c.456543-.614258.831055-1.228516,1.123047-1.841797.82373-1.857422,1.493164-3.676758,2.010742-5.458984.433594.43457.860352.805664,1.279297,1.112305.352539.254883.52832.453125.52832.594727,0,.075195-.038086.244141-.112305.505859-.613281,1.833984-1.273438,3.556641-1.976562,5.166016-.202148.479492-.310547.77832-.326172.898438-.021484.216797-.111816.326172-.269043.326172-.14209,0-.288086-.038086-.437988-.113281-.703613-.396484-1.310059-.792969-1.819336-1.189453ZM202.727539,321.778467c1.325195.704102,2.489258,1.494141,3.493164,2.370117.089844.089844.134766.149414.134766.179688,0,.044922-.044922.138672-.134766.280273l-1.033203,1.47168c-.068359.104492-.130859.157227-.191406.157227-.044922,0-.112305-.044922-.202148-.134766-1.018555-.928711-2.171387-1.770508-3.458984-2.527344-.119629-.074219-.179688-.137695-.179688-.19043,0-.030273.056152-.112305.168457-.24707l.943359-1.246094c.097168-.12793.179688-.191406.24707-.191406.044922,0,.116211.026367.213379.078125ZM203.71582,316.006983c1.392578.808594,2.541992,1.605469,3.448242,2.391602.089844.067383.134766.126953.134766.179688,0,.044922-.044922.138672-.134766.280273l-1.056641,1.449219c-.082031.112305-.149414.167969-.201172.167969-.038086,0-.101562-.033203-.191406-.100586-.988281-.943359-2.15625-1.804688-3.503906-2.583008-.10498-.05957-.157227-.112305-.157227-.157227,0-.052734.052246-.142578.157227-.269531l1.066895-1.24707c.097168-.111328.183594-.167969.258301-.167969.038086,0,.09668.018555.179688.056641ZM210.40918,331.066553c.808594.486328,1.415039.875977,1.819336,1.167969.164062.126953.24707.243164.24707.348633,0,.119141-.100586.227539-.303711.325195-.15625.082031-.376953.250977-.662109.504883-1.242188,1.183594-2.691406,2.134766-4.345703,2.853516-.322266.104492-.513672.15625-.573242.15625-.12793,0-.295898-.167969-.504883-.504883-.375-.643555-.759766-1.126953-1.157227-1.448242,1.879883-.607422,3.444336-1.449219,4.694336-2.527344.322266-.269531.583984-.561523.786133-.875977ZM209.904297,330.471827l-3.201172.044922c-.119141,0-.195312-.019531-.224609-.056641-.022461-.030273-.033203-.104492-.033203-.224609v-1.707031c0-.126953.017578-.206055.055664-.236328.022461-.021484.089844-.033203.202148-.033203l1.931641.044922v-7.064453c0-1.699219-.044922-3.046875-.134766-4.042969,1.041016.262695,1.804688.491211,2.291016.685547,2.074219-.239258,4.121094-.707031,6.142578-1.404297.569336-.201172,1.067383-.429688,1.494141-.68457.583984.404297,1.19043.902344,1.819336,1.493164.134766.134766.202148.273438.202148.416016,0,.157227-.123047.24707-.371094.269531-.306641.030273-.628906.101562-.964844.212891-2.515625.816406-5.181641,1.416016-7.996094,1.796875v2.111328h7.052734l2.830078-.044922c.134766,0,.216797.015625.246094.044922.023438.030273.03418.101562.03418.213867v1.696289c0,.126953-.018555.205078-.055664.235352-.030273.022461-.105469.03418-.224609.03418l-2.830078-.044922h-.179688v4.076172h.504883l3.200195-.044922c.105469,0,.168945.018555.191406.056641.022461.029297.033203.100586.033203.212891v1.707031c0,.126953-.010742.206055-.033203.236328-.022461.029297-.085938.044922-.191406.044922l-3.200195-.044922h-8.59082ZM211.117188,328.303858h4.435547v-4.076172h-4.435547v4.076172ZM222.246094,334.446436c-.298828.269531-.651367.779297-1.055664,1.527344-.194336.352539-.363281.52832-.504883.52832-.075195,0-.258789-.05957-.550781-.179688-1.931641-.823242-3.679688-2.029297-5.244141-3.616211-.075195-.067383-.113281-.123047-.113281-.167969,0-.060547.075195-.150391.224609-.269531l1.179688-1.011719c.126953-.111328.216797-.167969.269531-.167969.060547,0,.138672.044922.236328.134766,1.452148,1.339844,3.304688,2.414062,5.558594,3.222656Z" style="fill: #231815;"/>
        <path d="M225.222656,331.325342c-.150391.246094-.273438.370117-.371094.370117-.074219,0-.157227-.130859-.24707-.393555-.239258-.71875-.500977-1.302734-.786133-1.751953,1.654297-2.111328,2.841797-4.533203,3.560547-7.265625h-.573242l-2.301758.044922c-.150391,0-.224609-.082031-.224609-.24707v-1.639648c0-.165039.074219-.24707.224609-.24707l2.301758.044922h.696289v-1.516602c0-1.354492-.063477-2.399414-.191406-3.132812.861328.022461,1.628906.075195,2.302734.157227.261719.030273.392578.108398.392578.235352,0,.113281-.044922.273438-.134766.483398-.126953.24707-.19043.992188-.19043,2.235352v1.538086l2.12207-.044922c.12793,0,.207031.014648.236328.044922.022461.030273.033203.097656.033203.202148v1.639648c0,.120117-.014648.19043-.044922.213867-.029297.021484-.104492.033203-.224609.033203l-2.032227-.044922c.673828,1.782227,1.717773,3.391602,3.133789,4.829102-.337891.359375-.65918.857422-.966797,1.493164-.111328.248047-.212891.371094-.302734.371094s-.202148-.116211-.336914-.347656c-.756836-1.191406-1.317383-2.302734-1.68457-3.335938.007812,2.568359.037109,5.241211.089844,8.018555.015625.591797.033203,1.370117.056641,2.335938.006836.426758.010742.673828.010742.741211,0,.120117-.014648.191406-.044922.212891-.030273.023438-.09668.03418-.202148.03418h-1.864258c-.120117,0-.194336-.014648-.224609-.044922-.022461-.030273-.03418-.097656-.03418-.202148,0-.05957.011719-.595703.03418-1.605469.067383-3.078125.112305-5.900391.134766-8.46875-.516602,1.655273-1.298828,3.324219-2.34668,5.009766ZM241.460938,328.034327c1.183594,1.916992,2.228516,4.177734,3.133789,6.783203.022461.082031.03418.142578.03418.179688,0,.089844-.089844.183594-.269531.28125l-1.516602.808594c-.149414.074219-.243164.111328-.280273.111328-.038086,0-.075195-.063477-.113281-.19043-.194336-.673828-.425781-1.370117-.695312-2.088867-2.643555.598633-5.279297,1.066406-7.90625,1.404297-.412109.051758-.734375.137695-.966797.257812-.216797.120117-.370117.179688-.459961.179688-.165039,0-.280273-.116211-.348633-.347656-.149414-.5625-.332031-1.351562-.549805-2.370117.77832,0,1.613281-.044922,2.504883-.134766.919922-2.59082,1.586914-4.945312,1.998047-7.063477.232422-1.123047.371094-1.96582.416016-2.527344.710938.126953,1.470703.318359,2.279297.572266.262695.105469.393555.236328.393555.393555,0,.097656-.067383.228516-.202148.393555-.150391.164062-.28125.500977-.392578,1.009766-.644531,2.71875-1.295898,5.03125-1.955078,6.941406,1.326172-.172852,2.796875-.408203,4.414062-.708008-.396484-.90625-.886719-1.878906-1.470703-2.919922-.044922-.075195-.068359-.138672-.068359-.19043,0-.083008.089844-.165039.269531-.248047l1.291992-.617188c.134766-.067383.224609-.101562.269531-.101562.051758,0,.116211.064453.19043.191406ZM231.612305,324.440577c1.34082-1.737305,2.370117-3.967773,3.088867-6.693359.104492-.43457.179688-.924805.224609-1.470703.808594.224609,1.49707.478516,2.066406.763672.276367.134766.415039.265625.415039.392578,0,.104492-.051758.209961-.157227.314453-.126953.149414-.250977.426758-.371094.831055-.725586,2.485352-1.707031,4.74707-2.941406,6.783203-.209961.322266-.348633.483398-.416016.483398-.060547,0-.206055-.116211-.4375-.348633-.464844-.449219-.955078-.800781-1.47168-1.055664ZM245.279297,323.934717c-.576172.479492-1.043945.947266-1.40332,1.404297-.24707.291992-.400391.4375-.459961.4375-.068359,0-.207031-.130859-.416016-.392578-1.68457-2.223633-3.001953-4.881836-3.953125-7.973633-.022461-.067383-.033203-.116211-.033203-.145508,0-.089844.100586-.179688.302734-.269531l1.425781-.618164c.113281-.052734.191406-.079102.236328-.079102.067383,0,.119141.068359.157227.203125.84668,2.97168,2.227539,5.450195,4.143555,7.433594Z" style="fill: #231815;"/>
        <path d="M258.408203,322.194483v3.716797l.044922,6.671875c0,.119141-.013672.192383-.039062.21875-.026367.026367-.095703.039062-.208008.039062h-1.729492c-.126953,0-.202148-.018555-.224609-.056641-.022461-.021484-.033203-.089844-.033203-.201172v-.988281h-5.953125v1.707031c0,.164062-.078125.246094-.235352.246094h-1.762695c-.12793,0-.203125-.014648-.224609-.044922-.023438-.029297-.03418-.09668-.03418-.201172l.044922-7.019531v-4.087891l-.044922-5.402344c0-.126953.014648-.201172.044922-.224609.030273-.021484.100586-.033203.213867-.033203l2.806641.044922h4.324219l2.796875-.044922c.126953,0,.201172.014648.224609.044922.021484.030273.033203.101562.033203.212891l-.044922,5.402344ZM250.265625,318.623194v4.323242h1.865234v-4.323242h-1.865234ZM250.265625,329.549952h1.865234v-4.558594h-1.865234v4.558594ZM256.21875,318.623194h-1.920898v4.323242h1.920898v-4.323242ZM254.297852,329.549952h1.920898v-4.558594h-1.920898v4.558594ZM262.193359,321.622217l-2.819336.044922c-.134766,0-.217773-.019531-.24707-.056641-.022461-.030273-.033203-.104492-.033203-.224609v-1.90918c0-.120117.017578-.19043.055664-.213867.030273-.021484.104492-.033203.224609-.033203l2.819336.044922h2.863281l2.818359-.044922c.134766,0,.217773.014648.248047.044922.021484.030273.033203.097656.033203.202148v1.90918c0,.134766-.015625.216797-.044922.24707-.037109.022461-.116211.03418-.236328.03418l-2.59375-.044922v8.298828l.067383,3.661133c.022461,1.070312-.239258,1.837891-.786133,2.301758-.291992.240234-.673828.401367-1.145508.483398-.463867.082031-1.15332.120117-2.066406.112305-.352539,0-.561523-.037109-.628906-.112305-.05957-.067383-.134766-.277344-.224609-.628906-.141602-.628906-.374023-1.216797-.696289-1.762695.576172.05957,1.269531.089844,2.078125.089844.425781,0,.707031-.071289.841797-.213867.126953-.120117.191406-.348633.191406-.68457v-11.544922h-.71875Z" style="fill: #231815;"/>
        <path d="M111.891113,355.409327c.146484-1.158203.605469-2.036133,1.375488-2.632812.649902-.508789,1.45459-.762695,2.413574-.762695,1.200195,0,2.12793.325195,2.782715.974609.592285.582031.888672,1.360352.888672,2.334961,0,.733398-.20459,1.422852-.613281,2.067383-.366699.576172-.990723,1.273438-1.871094,2.09082-1.55127,1.388672-2.549805,2.526367-2.995117,3.412109h5.526367v1.611328h-7.617188v-1.430664c.696777-1.457031,1.868164-2.976562,3.513672-4.55957.838379-.806641,1.38623-1.441406,1.643066-1.902344.214844-.382812.322266-.817383.322266-1.304688,0-.571289-.165039-1.008789-.495117-1.313477-.283203-.261719-.655273-.392578-1.116211-.392578-1.063965,0-1.645996.741211-1.745605,2.224609l-2.012207-.416992Z" style="fill: #231815;"/>
        <path d="M124.885742,352.013819c1.362305,0,2.358398.552734,2.987305,1.658203.581543,1.033203.872559,2.583984.872559,4.654297,0,2.369141-.379883,4.072266-1.140137,5.109375-.633789.865234-1.553711,1.297852-2.759277,1.297852-1.378418,0-2.376465-.563477-2.995117-1.69043-.565918-1.038086-.849121-2.599609-.849121-4.685547,0-2.358398.382812-4.050781,1.147949-5.078125.628906-.84375,1.541016-1.265625,2.73584-1.265625ZM124.885742,353.601709c-.691895,0-1.168945.384766-1.430664,1.155273-.251953.723633-.377441,1.916016-.377441,3.577148,0,1.902344.157227,3.205078.47168,3.907227.261719.597656.694336.896484,1.296875.896484.70752,0,1.195312-.401367,1.462402-1.203125.240723-.728516.361816-1.928711.361816-3.600586,0-1.891602-.157227-3.178711-.47168-3.860352-.262207-.581055-.699707-.87207-1.312988-.87207Z" style="fill: #231815;"/>
        <path d="M130.349121,355.409327c.146484-1.158203.605469-2.036133,1.375488-2.632812.649902-.508789,1.45459-.762695,2.413574-.762695,1.200195,0,2.12793.325195,2.782715.974609.592285.582031.888672,1.360352.888672,2.334961,0,.733398-.20459,1.422852-.613281,2.067383-.366699.576172-.990723,1.273438-1.871094,2.09082-1.55127,1.388672-2.549805,2.526367-2.995117,3.412109h5.526367v1.611328h-7.617188v-1.430664c.696777-1.457031,1.868164-2.976562,3.513672-4.55957.838379-.806641,1.38623-1.441406,1.643066-1.902344.214844-.382812.322266-.817383.322266-1.304688,0-.571289-.165039-1.008789-.495117-1.313477-.283203-.261719-.655273-.392578-1.116211-.392578-1.063965,0-1.645996.741211-1.745605,2.224609l-2.012207-.416992Z" style="fill: #231815;"/>
        <path d="M145.819824,352.139795v8.06543h1.533203v1.516602h-1.533203v2.783203h-1.85498v-2.783203h-4.685547v-1.422852l3.993652-8.15918h2.546875ZM143.964844,360.205225v-2.704102c0-.859375.03125-2.115234.094238-3.765625h-.220215c-.366699.963867-.822754,2.036133-1.367676,3.214844l-1.517578,3.254883h3.01123Z" style="fill: #231815;"/>
        <path d="M151.346191,362.28042v2.224609h-2.303223v-2.224609h2.303223Z" style="fill: #231815;"/>
        <path d="M157.061523,352.013819c1.362305,0,2.358398.552734,2.987305,1.658203.581543,1.033203.872559,2.583984.872559,4.654297,0,2.369141-.379883,4.072266-1.140137,5.109375-.633789.865234-1.553711,1.297852-2.759277,1.297852-1.378418,0-2.376465-.563477-2.995117-1.69043-.565918-1.038086-.849121-2.599609-.849121-4.685547,0-2.358398.382812-4.050781,1.147949-5.078125.628906-.84375,1.541016-1.265625,2.73584-1.265625ZM157.061523,353.601709c-.691895,0-1.168945.384766-1.430664,1.155273-.251953.723633-.377441,1.916016-.377441,3.577148,0,1.902344.157227,3.205078.47168,3.907227.261719.597656.694336.896484,1.296875.896484.70752,0,1.195312-.401367,1.462402-1.203125.240723-.728516.361816-1.928711.361816-3.600586,0-1.891602-.157227-3.178711-.47168-3.860352-.262207-.581055-.699707-.87207-1.312988-.87207Z" style="fill: #231815;"/>
        <path d="M162.524902,355.409327c.146484-1.158203.605469-2.036133,1.375488-2.632812.649902-.508789,1.45459-.762695,2.413574-.762695,1.200195,0,2.12793.325195,2.782715.974609.592285.582031.888672,1.360352.888672,2.334961,0,.733398-.20459,1.422852-.613281,2.067383-.366699.576172-.990723,1.273438-1.871094,2.09082-1.55127,1.388672-2.549805,2.526367-2.995117,3.412109h5.526367v1.611328h-7.617188v-1.430664c.696777-1.457031,1.868164-2.976562,3.513672-4.55957.838379-.806641,1.38623-1.441406,1.643066-1.902344.214844-.382812.322266-.817383.322266-1.304688,0-.571289-.165039-1.008789-.495117-1.313477-.283203-.261719-.655273-.392578-1.116211-.392578-1.063965,0-1.645996.741211-1.745605,2.224609l-2.012207-.416992Z" style="fill: #231815;"/>
        <path d="M181.650879,351.800928c1.745605,0,3.097656.634766,4.056641,1.90332.859375,1.136719,1.289062,2.654297,1.289062,4.550781,0,2.175781-.558105,3.844727-1.674316,5.007812-.943359.991211-2.172363,1.486328-3.687012,1.486328-1.745117,0-3.097168-.636719-4.056152-1.910156-.859863-1.137695-1.289551-2.652344-1.289551-4.543945,0-2.174805.561035-3.84668,1.682617-5.015625.943359-.985352,2.169434-1.478516,3.678711-1.478516ZM181.650879,353.475733c-1.01123,0-1.78418.453125-2.318848,1.360352-.492676.833008-.73877,1.980469-.73877,3.443359,0,1.661133.316895,2.911133.951172,3.749023.529297.697266,1.231445,1.045898,2.106445,1.045898,1.006348,0,1.776855-.456055,2.311523-1.368164.487305-.833008.730957-1.975586.730957-3.426758,0-1.671875-.314453-2.924805-.943359-3.757812-.523926-.697266-1.223633-1.045898-2.099121-1.045898Z" style="fill: #231815;"/>
        <path d="M189.300293,352.013819h4.410156c2.97168,0,4.45752,1.192383,4.45752,3.577148,0,1.241211-.442871,2.182617-1.328613,2.821289-.791504.566406-1.878906.849609-3.262695.849609h-2.106445v5.243164h-2.169922v-12.491211ZM191.470215,353.640772v3.993164h2.043945c1.640137,0,2.460449-.675781,2.460449-2.027344,0-1.310547-.793945-1.96582-2.381836-1.96582h-2.122559Z" style="fill: #231815;"/>
        <path d="M208.702148,352.013819v1.72168h-6.07666v3.301758h4.591309v1.72168h-4.591309v4.024414h6.202637v1.72168h-8.372559v-12.491211h8.246582Z" style="fill: #231815;"/>
        <path d="M220.470703,352.013819v12.491211h-2.657227l-3.026367-6.438477c-.644531-1.388672-1.242188-2.764648-1.792969-4.126953h-.219727c.073242,1.383789.110352,2.887695.110352,4.512695v6.052734h-1.99707v-12.491211h3.270508l2.59375,5.53418c.639648,1.415039,1.192383,2.842773,1.65918,4.28418h.219727c-.104492-1.698242-.15625-3.222656-.15625-4.575195v-5.243164h1.996094Z" style="fill: #231815;"/>
      </g>
      <g>
        <g>
          <path d="M216.425727,17.497181c-2.355258,1.633723-3.504686,3.418441-3.504686,6.895554v65.650342c0,3.330946,1.290875,4.83394,3.998489,6.021776l21.898195,9.211166c2.200606.926523,4.000903-.269727,4.000903-2.656081V2.228393c0-2.386427-1.578561-2.841898-3.505893-1.434739l-22.887008,16.703527Z" style="fill: #b2a5a4;"/>
          <path d="M175.47946,16.569049c2.021996,2.174274,2.129864,3.896663,2.129864,7.093295v66.781848c0,3.095969-.746704,4.772781-3.149879,6.35493l-12.636715,8.201976c-2.002829,1.295669-3.642512.406309-3.642512-1.980045V1.844396c0-1.995627,1.773924-2.380428,2.886188-1.099098l14.413053,15.823751Z" style="fill: #827473;"/>
          <path d="M90.837303,105.585909c-1.709199,0-2.965324-1.274088-2.965324-3.232551V2.748094c0-1.723632.895357-2.736406,2.183835-2.736406.496217,0,1.048765.148653,1.631288.465054l32.591996,17.682796c2.419965,1.284915,3.812709,3.303293,3.812709,6.406505v65.211697c0,2.953314-1.532984,4.738032-4.138729,5.632147l-31.941163,9.986694c-.406327.128243-.800656.189328-1.174611.189328" style="fill: #5d504f;"/>
          <path d="M26.334175,134.917507c6.064854,0,10.637471,1.034355,13.716644,3.103138,3.081569,2.068783,4.618157,5.079598,4.618157,9.031348,0,2.162277-.634043,4.099232-1.89496,5.822792-1.263313,1.724803-3.136711,3.049222-5.618986,3.968502,1.793091.545379,3.448337,1.331662,4.964551,2.342095,1.519816,1.009189,2.745966,2.31927,3.686862,3.928925.945688,1.609728,1.413137,3.559852,1.413137,5.858711,0,2.80115-.562131,5.125175-1.690014,6.961467-1.124262,1.843389-2.617705,3.286541-4.477917,4.346061-1.861418,1.055936-3.922992,1.801471-6.170345,2.240188-2.252145.438644-4.503082.655626-6.755227.655626H0v-48.258854h26.334175ZM26.885533,142.087469H7.443223v12.410212h20.269339c1.655246-.046747,3.191834-.311645,4.618157-.792281,1.42272-.485391,2.558979-1.196176,3.411174-2.140696.851006-.937277,1.272915-2.078367,1.272915-3.411199,0-2.205366-.975664-3.767177-2.924558-4.686457-1.956101-.920524-4.355673-1.379579-7.204716-1.379579M28.05656,161.734728H7.443223v14.27167h20.958524c3.26135,0,5.952193-.587298,8.06889-1.759552,2.110716-1.16984,3.166668-2.973725,3.166668-5.41041,0-1.838634-.595691-3.26496-1.791884-4.274222-1.192589-1.009189-2.677638-1.731972-4.445563-2.171787-1.77151-.438718-3.550225-.655699-5.343298-.655699" style="fill: #231815;"/>
          <path d="M69.83708,139.121792c-1.608518,0-2.807106-.413552-3.584974-1.238168-.782678-.82703-1.169838-1.908132-1.169838-3.240964,0-1.14943.38716-2.180273,1.169838-3.103138.777868-.920524,1.976456-1.375994,3.584974-1.375994,1.609707,0,2.801089.413479,3.584974,1.239339.779075.82586,1.16982,1.906962,1.16982,3.239794,0,1.14943-.390745,2.183858-1.16982,3.103138-.783885.920524-1.975267,1.375994-3.584974,1.375994M73.353726,183.17358h-7.096847v-36.191452h7.096847v36.191452Z" style="fill: #231815;"/>
          <polygon points="129.749229 177.248004 129.749229 183.173873 93.279781 183.173873 93.279781 177.248004 120.442173 152.911875 93.279781 152.911875 93.279781 146.981251 129.335714 146.981251 129.335714 152.771634 101.829306 177.248004 129.749229 177.248004" style="fill: #231815;"/>
          <path d="M178.303319,154.840125h-16.131781v28.333456h-6.478405v-28.333456h-8.549525v-6.547916h8.549525v-1.242923c0-2.890985.630459-5.454816,1.890205-7.684177,1.264502-2.22702,3.022807-3.973331,5.27978-5.24142,2.247353-1.264504,4.823103-1.894964,7.717704-1.894964,2.524212,0,4.640908.34398,6.34292,1.034355,1.699597.690375,2.917352,1.354413,3.654509,2.001626l-2.413966,6.134437c-.825822-.647286-1.861418-1.229755-3.105546-1.758382-1.238129-.527383-2.454714-.791038-3.647303-.791038-2.302476,0-4.129145.385899-5.483556,1.171011-1.354374.782698-2.320436,1.791887-2.895771,3.030055-.577713,1.244094-.860571,2.575755-.860571,3.998496v1.242923h16.131781v6.547916ZM197.075594,132.161568h7.102828v51.013183h-7.102828v-51.013183Z" style="fill: #231815;"/>
          <path d="M267.883417,178.420698h-.069535c-1.378369.91811-3.103132,1.8003-5.171911,2.651326-2.065158.852196-4.342468,1.528159-6.825969,2.035204-2.48105.502217-5.031671.757459-7.649377.757459-4.827895,0-9.090075-.791038-12.788916-2.379185-3.701256-1.584563-6.595857-3.768347-8.684973-6.549086-2.096359-2.779568-3.139125-5.939037-3.139125-9.476064,0-3.036054.630459-5.748465,1.898582-8.140818,1.260917-2.388768,3.006054-4.410805,5.236618-6.062451,2.226979-1.655305,4.794353-2.916224,7.690161-3.793586,2.89098-.872534,5.946195-1.311251,9.165608-1.311251,4.044028,0,7.717704.749119,11.030575,2.243773,3.308115,1.494654,5.952193,3.551439,7.927479,6.169113,1.976456,2.617747,2.962892,5.680137,2.962892,9.170418l-.068291,3.72043h-38.533435c.777905,3.037224,2.834686,5.424822,6.167931,7.169962,3.330903,1.745213,7.503174,2.622575,12.50968,2.622575,3.725214,0,6.803181-.485464,9.243519-1.451491,2.429548-.962516,4.409589-1.881796,5.925821-2.759158l3.172667,5.382831ZM247.54458,152.704916c-2.759153,0-5.296569.298477-7.619456.894188-2.318058.600466-4.26335,1.566566-5.826329,2.899398-1.55815,1.331588-2.617705,3.099554-3.166668,5.304919h31.296329v-1.172181c-.230112-1.561738-1.069139-2.941317-2.517043-4.132738-1.44666-1.196176-3.239751-2.128698-5.376858-2.793907-2.13707-.667623-4.40242-.999679-6.789976-.999679" style="fill: #231815;"/>
          <polygon points="282.362128 183.174166 300.563859 164.079456 283.673377 146.981543 294.356387 146.981543 306.35306 160.290698 319.313381 146.981543 329.449843 146.981543 310.972424 164.978399 330.000013 183.174166 319.590277 183.174166 305.183223 168.767157 292.426641 183.242494 282.362128 183.174166" style="fill: #231815;"/>
          <path d="M119.135936,267.112744c.966062,0,1.842215.190572,2.627289.568131.783903.379973,1.407156.907356,1.868624,1.582148.461432.674792.69158,1.452662.69158,2.330024,0,.878606-.227735,1.657646-.684411,2.33851-.455469.680791-1.0811,1.212929-1.875794,1.596487-.797035.384728-1.710388.576544-2.742363.576544-.769492,0-1.47424-.130657-2.115489-.394385-.642456-.263655-1.161425-.560888-1.55698-.889359v1.070348h-1.695994v-12.1369h1.695994v4.709282c.384764-.339225.908525-.649627,1.572562-.930107.664001-.27931,1.403535-.420721,2.214981-.420721M118.905823,268.678066c-.747947,0-1.405949.127072-1.975286.377559-.572921.252901-1.018807.599295-1.34362,1.039183-.323606.438718-.485427.93852-.485427,1.498238,0,.548964.161821,1.045182.485427,1.489898.324813.445887.770699.797036,1.34362,1.054766.569337.2589,1.227339.387142,1.975286.387142.734706,0,1.385538-.128243,1.951291-.387142.565716-.257729,1.010394-.608879,1.33283-1.054766.324813-.444716.486634-.940935.486634-1.489898,0-.559718-.161821-1.059521-.486634-1.498238-.322435-.439888-.767114-.786282-1.33283-1.039183-.565752-.250487-1.216585-.377559-1.951291-.377559" style="fill: #231815;"/>
          <path d="M130.778095,279.7275l1.976456-3.375206-5.138333-9.057757h1.992038l2.552999,4.727278c.363146.65804.669999,1.241753.9229,1.75231.2529.511801.43868.969685.559753,1.375994.164199-.417136.359562-.884531.583712-1.39999.225321-.515385.508178-1.091856.84861-1.728314l2.470259-4.727278h1.976493l-4.809935,8.629867-2.122695,3.803096h-1.812258Z" style="fill: #231815;"/>
          <polygon points="152.778781 264.413354 152.778781 269.401946 160.830881 269.401946 160.830881 264.413354 162.60839 264.413354 162.60839 275.941449 160.830881 275.941449 160.830881 271.114678 152.778781 271.114678 152.778781 275.941449 151.000065 275.941449 151.000065 264.413354 152.778781 264.413354" style="fill: #231815;"/>
          <path d="M179.339757,264.396309v6.026532c0,1.087174-.237355,2.053201-.715576,2.899398-.47705.845027-1.150634,1.509065-2.017241,1.993286-.867777.481806-1.887755.723953-3.062384.723953-1.16501,0-2.18261-.242147-3.055178-.723953-.872605-.484221-1.547396-1.148259-2.025617-1.993286-.478257-.846197-.716783-1.812224-.716783-2.899398v-6.026532h1.778716v5.961862c0,.768286.17861,1.449077.535758,2.04113.356014.59337.839026,1.060764,1.449111,1.39999.608878.340396,1.286083.51063,2.033993.51063.788695,0,1.494651-.170234,2.116733-.51063.618461-.339225,1.105095-.80662,1.45628-1.39999.349978-.592053.526175-1.272844.526175-2.04113v-5.961862h1.696013Z" style="fill: #231815;"/>
          <polygon points="193.963829 274.227912 193.963829 275.940717 184.4782 275.940717 184.4782 264.413866 186.256879 264.413866 186.256879 274.227912 193.963829 274.227912" style="fill: #231815;"/>
          <rect x="197.772002" y="263.754803" width="1.696013" height="12.186061" style="fill: #231815;"/>
          <path d="M216.264162,274.227912c-.306853.25173-.723952.527383-1.251334.823446-.526175.296063-1.130297.545379-1.811087.749119-.68079.202569-1.405949.304476-2.173026.304476-.93369,0-1.803881-.13907-2.610536-.420721-.806655-.279237-1.51261-.677207-2.116696-1.192592-.602879-.515385-1.076345-1.138676-1.415532-1.869798-.340395-.729952-.510592-1.543815-.510592-2.445098,0-.843856.174989-1.62414.527382-2.33851.349978-.713126.836612-1.334003,1.45628-1.861385.620875-.526212,1.331622-.936106,2.133486-1.227341.801863-.288894,1.646852-.435133,2.53621-.435133.746704,0,1.459865.093494,2.140692.27931.679583.186987,1.298044.429061,1.851798.725124.554962.296063.996019.604124,1.325624.921768l-1.053556,1.498238c-.593295-.48188-1.251297-.883361-1.976456-1.202248-.723952-.317571-1.541397-.475808-2.453507-.475808-.581334,0-1.153049.095908-1.712802.28765-.55851.190572-1.061933.466224-1.506612.823446-.443472.355978-.798242.788697-1.061933,1.292084-.263691.504631-.394348,1.075103-.394348,1.712805,0,.692789.136619,1.29801.4111,1.819394.273274.521457.64487.960101,1.111094,1.317323.46626.358319.99964.623217,1.597728.799451.598087.17499,1.215378.263655,1.853005.263655.658038,0,1.245335-.085081,1.761926-.255315.515421-.170161.975645-.382314,1.383197-.634044.405101-.252901.773076-.499803,1.102681-.740706l.855816,1.481412Z" style="fill: #231815;"/>
        </g>
        <g>
          <path d="M41.605636,217.146853v5.824576h9.400546v-5.824576h2.076518v13.457214h-2.076518v-5.632986h-9.400546v5.632986h-2.076518v-13.457214h2.076518Z" style="fill: #231815;"/>
          <path d="M73.517474,230.604067l-1.537312-3.152636h-7.97796l-1.538459,3.152636h-2.191243l6.574876-13.457214h2.42184l6.537017,13.457214h-2.288759ZM66.942599,221.414614l-1.960646,4.037164h6.017313l-1.999652-4.11403c-.178971-.371708-.352205-.727355-.518556-1.06694s-.333849-.707852-.5002-1.105947c-.166351.410715-.336144.795043-.509378,1.154131s-.348763.723913-.528881,1.095621Z" style="fill: #231815;"/>
          <path d="M85.032398,217.146853l5.767213,7.132438,5.767213-7.132438h2.038659v13.457214h-2.076518v-5.709851c0-.832902.016061-1.624503.048184-2.373655.032123-.7503.086044-1.497158.162909-2.240574l-5.30602,6.460151h-1.268856l-5.30602-6.460151c.076866.743416.131933,1.490275.164056,2.240574.030976.749153.048184,1.540753.048184,2.373655v5.709851h-2.076518v-13.457214h2.037512Z" style="fill: #231815;"/>
          <path d="M119.040257,230.604067l-1.537312-3.152636h-7.97796l-1.538459,3.152636h-2.191243l6.574876-13.457214h2.42184l6.537017,13.457214h-2.288759ZM112.465382,221.414614l-1.960646,4.037164h6.017313l-1.999652-4.11403c-.178971-.371708-.352205-.727355-.518556-1.06694s-.333849-.707852-.5002-1.105947c-.166351.410715-.336144.795043-.509378,1.154131s-.348763.723913-.528881,1.095621Z" style="fill: #231815;"/>
          <path d="M130.556328,217.146853l5.767213,7.132438,5.767213-7.132438h2.038659v13.457214h-2.076518v-5.709851c0-.832902.016061-1.624503.048184-2.373655.032123-.7503.086044-1.497158.162909-2.240574l-5.30602,6.460151h-1.268856l-5.30602-6.460151c.076866.743416.131933,1.490275.164056,2.240574.030976.749153.048184,1.540753.048184,2.373655v5.709851h-2.076518v-13.457214h2.037512Z" style="fill: #231815;"/>
          <path d="M164.564188,230.604067l-1.537312-3.152636h-7.97796l-1.538459,3.152636h-2.191243l6.574876-13.457214h2.42184l6.537017,13.457214h-2.288759ZM157.989312,221.414614l-1.960646,4.037164h6.017313l-1.999652-4.11403c-.178971-.371708-.352205-.727355-.518556-1.06694s-.333849-.707852-.5002-1.105947c-.166351.410715-.336144.795043-.509378,1.154131s-.348763.723913-.528881,1.095621Z" style="fill: #231815;"/>
          <path d="M177.578564,230.604067v-11.457561h-5.113282v-1.999652h12.418955v1.999652h-5.229154v11.457561h-2.076518Z" style="fill: #231815;"/>
          <path d="M192.497371,226.451031c.756036.782423,1.560257,1.391611,2.412662,1.826418.852405.435954,1.861983.653931,3.028734.653931.665404,0,1.306715-.080307,1.92164-.239775.616072-.160615,1.122008-.403831,1.518956-.730797s.596569-.739975.596569-1.240175c0-.435954-.176676-.765214-.528881-.990075-.352205-.223713-.859288-.396948-1.518956-.518556s-1.463888-.240922-2.412662-.355647c-1.152984-.153731-2.153384-.385475-2.998905-.692938s-1.499453-.723913-1.960646-1.249353-.692938-1.185107-.692938-1.980149c0-.845521.266161-1.563698.798484-2.153384.531176-.588538,1.249353-1.040554,2.153384-1.354899.902884-.314346,1.912462-.471519,3.027586-.471519,1.370961,0,2.553773.205357,3.547289.616072.992369.409567,1.778234.992369,2.354152,1.748405l-1.383581,1.518956c-.5002-.602305-1.131186-1.088738-1.894106-1.460446-.761772-.371708-1.656625-.557562-2.681118-.557562-.692938,0-1.314746.073424-1.865425.220272-.550679.147995-.986633.36253-1.306715.644753-.321229.282223-.480697.621808-.480697,1.018756,0,.473813.169793.848963.509378,1.124303.339585.276487.820282.491022,1.44209.644753.620661.153731,1.34228.282223,2.162562.384328.768656.089485,1.512072.201916,2.230249.336144.71703.134228,1.361783.326966,1.931965.577066s1.018756.589685,1.345721,1.018756.489875.983191.489875,1.662362c0,.871908-.259278,1.634828-.778981,2.288759-.518556.652784-1.252794,1.159867-2.200421,1.517809-.948774.359088-2.063898.539206-3.345374.539206-1.397348,0-2.653584-.205357-3.767561-.616072-1.115125-.409567-2.102905-1.076118-2.961046-1.998505l1.306715-1.731197Z" style="fill: #231815;"/>
          <path d="M225.43026,217.12735v7.036069c0,1.268856-.278781,2.3966-.836343,3.38438-.557562.986633-1.34228,1.762172-2.355299,2.325471-1.011872.564446-2.203863.846669-3.575971.846669-1.358341,0-2.54689-.282223-3.565645-.846669-1.018756-.563299-1.806915-1.338838-2.364477-2.325471-.557562-.98778-.836343-2.115524-.836343-3.38438v-7.036069h2.076518v6.959204c0,.897148.207652,1.69219.624103,2.38398s.980897,1.236733,1.69219,1.634828c.711293.396948,1.501747.595421,2.373655.595421.923534,0,1.746111-.198474,2.471171-.595421.723913-.398095,1.290654-.943037,1.701368-1.634828.409567-.69179.614925-1.486833.614925-2.38398v-6.959204h1.980149Z" style="fill: #231815;"/>
          <path d="M246.961802,228.604414c-.359088.294843-.846669.614925-1.461593.961393s-1.320482.63787-2.114377.87535c-.795043.236333-1.640564.355647-2.537712.355647-1.089885,0-2.105199-.164056-3.04709-.491022s-1.765614-.790454-2.470024-1.393906c-.705557-.602305-1.256236-1.32966-1.654331-2.182065-.396948-.851258-.595421-1.803473-.595421-2.854352,0-.986633.205357-1.8964.614925-2.730449.410715-.832902.977455-1.556815,1.701368-2.17174s1.55452-1.09218,2.489527-1.432912c.936154-.338438,1.922787-.509378,2.961046-.509378.870761,0,1.70481.108989,2.498705.326966.795043.217977,1.515514.5002,2.163709.846669.647048.345322,1.162162.70441,1.54649,1.076118l-1.229849,1.749553c-.69179-.564446-1.461593-1.031376-2.307115-1.403084s-1.801179-.557562-2.864677-.557562c-.679171,0-1.345721.11243-1.998505.336144-.653931.223713-1.240175.544943-1.759878.961393-.518556.416451-.931565.918945-1.240175,1.508631-.307462.589685-.461194,1.256236-.461194,1.999652,0,.807662.160615,1.515514.480697,2.124702.320082.608041.752594,1.120861,1.297537,1.537312s1.166751.727355,1.865425.932712,1.419145.307462,2.162562.307462c.768656,0,1.45471-.098663,2.057015-.298284.602305-.198474,1.140364-.445132,1.615325-.739975.473813-.294843.902884-.582802,1.287212-.865025l1.0004,1.730049Z" style="fill: #231815;"/>
          <path d="M256.977273,217.146853v5.824576h9.400546v-5.824576h2.076518v13.457214h-2.076518v-5.632986h-9.400546v5.632986h-2.076518v-13.457214h2.076518Z" style="fill: #231815;"/>
          <path d="M292.600457,223.87546c0,.974013-.199621,1.881486-.596569,2.720124-.396948.839785-.961393,1.574024-1.69219,2.201568-.729649.627544-1.588938,1.118566-2.575571,1.470771s-2.076518.528881-3.268508.528881-2.28417-.176676-3.277686-.528881-1.851658-.843227-2.575571-1.470771c-.72506-.627544-1.284917-1.361783-1.683012-2.201568-.396948-.838638-.595421-1.746111-.595421-2.720124s.198474-1.880339.595421-2.720124c.398095-.839785.957952-1.572876,1.683012-2.201568.723913-.627544,1.582054-1.117419,2.575571-1.470771.993516-.352205,2.085696-.528881,3.277686-.528881s2.281875.176676,3.268508.528881c.986633.353352,1.845921.843227,2.575571,1.470771.730797.628692,1.295242,1.361783,1.69219,2.201568s.596569,1.746111.596569,2.720124ZM290.484932,223.87546c0-.935007-.255836-1.77135-.768656-2.50903-.51282-.736533-1.220671-1.319335-2.124702-1.749553-.902884-.429071-1.944585-.643606-3.123955-.643606-1.19199,0-2.239427.214535-3.143458.643606-.902884.430218-1.608441,1.01302-2.114377,1.749553-.505936.73768-.759478,1.574024-.759478,2.50903,0,.936154.253542,1.77135.759478,2.50903.505936.736533,1.211493,1.320482,2.114377,1.749553.904031.429071,1.951468.643606,3.143458.643606,1.17937,0,2.221071-.214535,3.123955-.643606.904031-.429071,1.611883-1.016461,2.124702-1.759878.51282-.742269.768656-1.576318.768656-2.498705Z" style="fill: #231815;"/>
        </g>
      </g>
    </g>
  </g>
</svg>